<svg height="16" viewBox="0 0 16 16" width="16" xmlns="http://www.w3.org/2000/svg"><g fill="#2e3436"><path d="m8.0000001.04999996a7.9507034 7.9507034 0 0 0 -7.95000014 7.95000014 7.9507034 7.9507034 0 0 0 7.95000014 7.9499999 7.9507034 7.9507034 0 0 0 7.9499999-7.9499999 7.9507034 7.9507034 0 0 0 -7.9499999-7.95000014zm0 1.53972334a6.3230005 6.3230005 0 0 1 6.3222919 6.3222927 6.3230005 6.3230005 0 0 1 -6.3222919 6.324387 6.3230005 6.3230005 0 0 1 -6.3222926-6.324387 6.3230005 6.3230005 0 0 1 6.3222926-6.3222927z" stroke-width="1.2235"/><path d="m8.0024142 2.487c-2.74259 0-4.400445 1.8614732-4.400445 4.5657937 0 .1275644.049688.2259028.1400032.2812132v.3379388l-.077243.00483c-.18915.078754-.3241593.2632251-.3681119.5141475-.051798.5280388.071307 1.4344108.2956964 2.2098778.3370674 1.282354.6147687 1.76842 1.0331275 1.882803.5290991.144658.9093154-.280853.7676023-.87502l-.8327769-3.2417999c-.0639744-.2425204-.2149581-.4012957-.4224233-.4803557v-.3512146c.0892067-.0549328.140003-.1532844.140003-.2824201.0054699-1.0262492.2710814-1.8887102.7543273-2.5393681.8414542-.4819422 1.8125812-.7157064 2.9702404-.7157064 1.1603396 0 2.1481568.2351157 2.9774818.7193269.482447.6482362.749416 1.505834.760361 2.5236779 0 .1225447.047.2164483.127934.2727653v.3294901h-.0037l.0037.00966v.031379c-.210466.078288-.363888.2379836-.428459.4827663l-.832777 3.2417993c-.141711.594167.239711 1.019678.768811.87502.418358-.114383.694852-.600449 1.031921-1.882803.224388-.775467.347493-1.6818395.295696-2.2098783-.04396-.2509224-.178962-.4353932-.368112-.5141496l-.0712-.00483v-.3487997c.08903-.054966.140003-.1534203.140003-.2824207-.000004-2.7043192-1.659065-4.5537227-4.4016558-4.5537227zm-2.3414325 4.9158015c-.06333.00187-.1291059.011942-.1943151.031379-.035004.00917-.066007.022219-.095352.036208-.052579.017021-.09448.047641-.1231068.088105-.064989.071566-.089262.1621538-.061556.2582819l.4948388 1.7874536.4646648 1.788664c.053996.187061.1732499.268587.3270767.234142.030185-.0083.059162-.01944.085693-.0338.016746-.0029.033177-.0062.050689-.01087.3709625-.110578.5766732-.451747.4827703-.805018l-.7977748-2.9159225c-.056495-.2125125-.2099291-.3643571-.4043198-.4272509-.02777-.00899-.056432-.01523-.085693-.020517-.026594-.00481-.053282-.00803-.080863-.00966-.020694-.00122-.04165-.00183-.062763-.00121zm4.6768303 0c-.02111-.0006254-.04207-.000013-.06276.00121-.02759.00163-.05547.00485-.08207.00966-.02926.00528-.05672.011532-.08448.020517-.1943891.062894-.3490363.2147383-.4055261.4272509l-.7965759 2.9159246c-.093903.353271.1106005.694441.4815619.80502.017512.0045.035151.0079.051896.01087.026531.01434.054301.02551.084485.03379.1538278.03445.274286-.04708.328284-.234142l.4634601-1.78867.494839-1.7874544c.02772-.096128.0035-.1867158-.06156-.2582819-.02862-.040463-.06933-.071084-.121899-.088105-.02934-.013989-.06155-.027038-.09656-.036208-.06521-.019437-.129778-.029504-.193108-.031379z" stroke-width=".617925"/></g></svg>